<svg width="51" height="51" viewBox="0 0 51 51" fill="none" xmlns="http://www.w3.org/2000/svg">
<path d="M20.3701 45.781V50.9463L19.1211 49.9374C18.9281 49.7813 14.3364 46.0534 9.68001 40.7076C3.25676 33.333 0 26.7132 0 21.0328V20.4697C0 9.2376 9.13799 0.0996094 20.3701 0.0996094C31.6022 0.0996094 40.7402 9.2376 40.7402 20.4697V21.0328C40.7402 21.5098 40.7149 21.9942 40.669 22.4845L36.6854 18.8503C35.8695 10.5672 28.8642 4.07426 20.3701 4.07426C11.3298 4.07426 3.97465 11.4294 3.97465 20.4697V21.0328C3.97465 30.6318 16.3426 42.2523 20.3701 45.781ZM32.5921 42.9262H38.5539V36.9644H32.5921V42.9262ZM20.3701 12.0236C25.0272 12.0236 28.8163 15.8126 28.8163 20.4697C28.8163 25.1269 25.0272 28.9159 20.3701 28.9159C15.713 28.9159 11.9239 25.1269 11.9239 20.4697C11.9239 15.8126 15.713 12.0236 20.3701 12.0236ZM20.3701 15.9982C17.9044 15.9982 15.8986 18.004 15.8986 20.4697C15.8986 22.9351 17.9044 24.9413 20.3701 24.9413C22.8354 24.9413 24.8416 22.9351 24.8416 20.4697C24.8416 18.004 22.8354 15.9982 20.3701 15.9982ZM48.3214 40.2255L47.2039 39.206V45.5869C47.2039 48.558 44.7865 50.9751 41.8153 50.9751H29.2315C26.2603 50.9751 23.8428 48.558 23.8428 45.5869V39.206L22.7253 40.2255L20.0468 37.2893L35.5232 23.1701L51 37.2893L48.3214 40.2255ZM43.2293 35.58L35.5232 28.5501L27.8175 35.58V45.5865C27.8175 46.3662 28.4517 47.0005 29.2315 47.0005H41.8153C42.5951 47.0005 43.2293 46.3662 43.2293 45.5865V35.58Z" fill="white"/>
</svg>
