<svg width="84" height="84" viewBox="0 0 84 84" fill="none" xmlns="http://www.w3.org/2000/svg">
<path d="M78.75 0.65625H5.25C4.03211 0.657723 2.86453 1.14218 2.00335 2.00335C1.14218 2.86453 0.657723 4.03211 0.65625 5.25V78.75C0.657723 79.9679 1.14218 81.1355 2.00335 81.9966C2.86453 82.8578 4.03211 83.3423 5.25 83.3438H78.75C79.9679 83.3423 81.1355 82.8578 81.9966 81.9966C82.8578 81.1355 83.3423 79.9679 83.3438 78.75V5.25C83.3423 4.03211 82.8578 2.86453 81.9966 2.00335C81.1355 1.14218 79.9679 0.657723 78.75 0.65625ZM79.4062 78.75C79.4061 78.924 79.337 79.0909 79.2139 79.2139C79.0909 79.337 78.924 79.4061 78.75 79.4062H5.25C5.07599 79.4061 4.90914 79.337 4.78609 79.2139C4.66305 79.0909 4.59387 78.924 4.59375 78.75V19.0312H79.4062V78.75ZM79.4062 15.0938H4.59375V5.25C4.59387 5.07599 4.66305 4.90914 4.78609 4.78609C4.90914 4.66305 5.07599 4.59387 5.25 4.59375H78.75C78.924 4.59387 79.0909 4.66305 79.2139 4.78609C79.337 4.90914 79.4061 5.07599 79.4062 5.25V15.0938Z" fill="#515067"/>
<path d="M11.1562 12.4688C12.606 12.4688 13.7812 11.2935 13.7812 9.84375C13.7812 8.394 12.606 7.21875 11.1562 7.21875C9.7065 7.21875 8.53125 8.394 8.53125 9.84375C8.53125 11.2935 9.7065 12.4688 11.1562 12.4688Z" fill="#515067"/>
<path d="M24.2812 12.4688C25.731 12.4688 26.9062 11.2935 26.9062 9.84375C26.9062 8.394 25.731 7.21875 24.2812 7.21875C22.8315 7.21875 21.6562 8.394 21.6562 9.84375C21.6562 11.2935 22.8315 12.4688 24.2812 12.4688Z" fill="#515067"/>
<path d="M37.4062 12.4688C38.856 12.4688 40.0312 11.2935 40.0312 9.84375C40.0312 8.394 38.856 7.21875 37.4062 7.21875C35.9565 7.21875 34.7812 8.394 34.7812 9.84375C34.7812 11.2935 35.9565 12.4688 37.4062 12.4688Z" fill="#515067"/>
<path d="M10.5 43.9688H26.25C26.7721 43.9688 27.2729 43.7613 27.6421 43.3921C28.0113 43.0229 28.2188 42.5221 28.2188 42C28.2188 41.4779 28.0113 40.9771 27.6421 40.6079C27.2729 40.2387 26.7721 40.0312 26.25 40.0312H12.4688V26.9062H71.5312V40.0312H57.75C57.2279 40.0312 56.7271 40.2387 56.3579 40.6079C55.9887 40.9771 55.7812 41.4779 55.7812 42C55.7812 42.5221 55.9887 43.0229 56.3579 43.3921C56.7271 43.7613 57.2279 43.9688 57.75 43.9688H73.5C73.7586 43.9688 74.0146 43.9179 74.2535 43.819C74.4923 43.72 74.7094 43.575 74.8922 43.3922C75.075 43.2094 75.22 42.9923 75.319 42.7535C75.4179 42.5146 75.4688 42.2586 75.4688 42V24.9375C75.4688 24.6789 75.4179 24.4229 75.319 24.184C75.22 23.9452 75.075 23.7281 74.8922 23.5453C74.7094 23.3625 74.4923 23.2175 74.2535 23.1185C74.0146 23.0196 73.7586 22.9687 73.5 22.9688H10.5C10.2414 22.9687 9.98542 23.0196 9.74655 23.1185C9.50767 23.2175 9.29062 23.3625 9.1078 23.5453C8.92497 23.7281 8.77996 23.9452 8.68103 24.184C8.58211 24.4229 8.53121 24.6789 8.53125 24.9375V42C8.53121 42.2586 8.58211 42.5146 8.68103 42.7535C8.77996 42.9923 8.92497 43.2094 9.1078 43.3922C9.29062 43.575 9.50767 43.72 9.74655 43.819C9.98542 43.9179 10.2414 43.9688 10.5 43.9688Z" fill="#515067"/>
<path d="M17.0625 51.8438H10.5C9.97786 51.8438 9.4771 51.6363 9.10788 51.2671C8.73867 50.8979 8.53125 50.3971 8.53125 49.875C8.53125 49.3529 8.73867 48.8521 9.10788 48.4829C9.4771 48.1137 9.97786 47.9062 10.5 47.9062H17.0625C17.5846 47.9062 18.0854 48.1137 18.4546 48.4829C18.8238 48.8521 19.0312 49.3529 19.0312 49.875C19.0312 50.3971 18.8238 50.8979 18.4546 51.2671C18.0854 51.6363 17.5846 51.8438 17.0625 51.8438Z" fill="#515067"/>
<path d="M17.0625 61.0312H10.5C9.97786 61.0312 9.4771 60.8238 9.10788 60.4546C8.73867 60.0854 8.53125 59.5846 8.53125 59.0625C8.53125 58.5404 8.73867 58.0396 9.10788 57.6704C9.4771 57.3012 9.97786 57.0938 10.5 57.0938H17.0625C17.5846 57.0938 18.0854 57.3012 18.4546 57.6704C18.8238 58.0396 19.0312 58.5404 19.0312 59.0625C19.0312 59.5846 18.8238 60.0854 18.4546 60.4546C18.0854 60.8238 17.5846 61.0312 17.0625 61.0312Z" fill="#515067"/>
<path d="M17.0625 70.2188H10.5C9.97786 70.2188 9.4771 70.0113 9.10788 69.6421C8.73867 69.2729 8.53125 68.7721 8.53125 68.25C8.53125 67.7279 8.73867 67.2271 9.10788 66.8579C9.4771 66.4887 9.97786 66.2812 10.5 66.2812H17.0625C17.5846 66.2812 18.0854 66.4887 18.4546 66.8579C18.8238 67.2271 19.0312 67.7279 19.0312 68.25C19.0312 68.7721 18.8238 69.2729 18.4546 69.6421C18.0854 70.0113 17.5846 70.2188 17.0625 70.2188Z" fill="#515067"/>
<path d="M41.3425 47.25C41.3426 46.9914 41.2917 46.7354 41.1928 46.4965C41.0938 46.2577 40.9488 46.0406 40.766 45.8578C40.5832 45.675 40.3661 45.53 40.1272 45.431C39.8884 45.3321 39.6323 45.2812 39.3738 45.2813H34.1238C33.6016 45.2813 33.1009 45.4887 32.7317 45.8579C32.3624 46.2271 32.155 46.7279 32.155 47.25C32.155 47.7721 32.3624 48.2729 32.7317 48.6421C33.1009 49.0113 33.6016 49.2188 34.1238 49.2188H39.3738C39.6323 49.2188 39.8884 49.1679 40.1272 49.069C40.3661 48.97 40.5832 48.825 40.766 48.6422C40.9488 48.4594 41.0938 48.2423 41.1928 48.0035C41.2917 47.7646 41.3426 47.5086 41.3425 47.25Z" fill="#FF6B00"/>
<path d="M36.7488 53.1562H31.4988C30.9766 53.1562 30.4759 53.3637 30.1067 53.7329C29.7374 54.1021 29.53 54.6029 29.53 55.125C29.53 55.6471 29.7374 56.1479 30.1067 56.5171C30.4759 56.8863 30.9766 57.0938 31.4988 57.0938H36.7488C37.2709 57.0938 37.7717 56.8863 38.1409 56.5171C38.5101 56.1479 38.7175 55.6471 38.7175 55.125C38.7175 54.6029 38.5101 54.1021 38.1409 53.7329C37.7717 53.3637 37.2709 53.1562 36.7488 53.1562Z" fill="#FF6B00"/>
<path d="M34.1238 61.0312H28.8738C28.3516 61.0312 27.8509 61.2387 27.4817 61.6079C27.1124 61.9771 26.905 62.4779 26.905 63C26.905 63.5221 27.1124 64.0229 27.4817 64.3921C27.8509 64.7613 28.3516 64.9688 28.8738 64.9688H34.1238C34.6459 64.9688 35.1467 64.7613 35.5159 64.3921C35.8851 64.0229 36.0925 63.5221 36.0925 63C36.0925 62.4779 35.8851 61.9771 35.5159 61.6079C35.1467 61.2387 34.6459 61.0312 34.1238 61.0312Z" fill="#FF6B00"/>
<path d="M74.6248 49.7731C74.188 49.1915 73.6214 48.7199 72.9702 48.3958C72.319 48.0717 71.6012 47.9041 70.8738 47.9062H48.9734L49.8988 45.264C50.2094 44.3736 50.3024 43.4218 50.1702 42.4881C50.0379 41.5544 49.6842 40.6659 49.1385 39.8969C48.5929 39.1278 47.8711 38.5004 47.0335 38.0671C46.196 37.6338 45.2669 37.4072 44.3239 37.4062H35.4363C34.9141 37.4062 34.4134 37.6137 34.0442 37.9829C33.6749 38.3521 33.4675 38.8529 33.4675 39.375C33.4675 39.8971 33.6749 40.3979 34.0442 40.7671C34.4134 41.1363 34.9141 41.3437 35.4363 41.3437H44.3239C44.6384 41.3434 44.9484 41.4186 45.2279 41.5628C45.5075 41.7071 45.7483 41.9162 45.9303 42.1728C46.1123 42.4294 46.2301 42.7258 46.2738 43.0373C46.3176 43.3488 46.286 43.6662 46.1817 43.963L40.0499 61.4824C39.8136 62.1495 39.7358 62.8625 39.8227 63.5649C39.9096 64.2673 40.1587 64.9398 40.5505 65.5292C40.9422 66.1187 41.4658 66.6088 42.0798 66.9609C42.6937 67.313 43.3812 67.5173 44.0878 67.5577C43.4245 68.1887 42.9651 69.0036 42.7684 69.8977C42.5718 70.7918 42.647 71.7243 42.9844 72.5753C43.3217 73.4264 43.9058 74.1571 44.6617 74.6737C45.4175 75.1903 46.3105 75.469 47.2259 75.4742C48.1414 75.4794 49.0375 75.2108 49.7991 74.7028C50.5607 74.1948 51.1531 73.4707 51.5001 72.6236C51.847 71.7764 51.9328 70.8448 51.7463 69.9486C51.5598 69.0523 51.1096 68.2322 50.4536 67.5937H59.7941C59.1394 68.2312 58.6897 69.0495 58.5025 69.9438C58.3153 70.8382 58.3991 71.7681 58.7431 72.6146C59.0872 73.4612 59.6759 74.1858 60.434 74.696C61.192 75.2062 62.085 75.4787 62.9988 75.4787C63.9126 75.4787 64.8056 75.2062 65.5637 74.696C66.3217 74.1858 66.9104 73.4612 67.2545 72.6146C67.5985 71.7681 67.6823 70.8382 67.4951 69.9438C67.3079 69.0495 66.8582 68.2312 66.2036 67.5937H67.3625C68.3292 67.5947 69.2714 67.2903 70.0548 66.7239C70.8382 66.1576 71.4227 65.3583 71.7249 64.44L75.2336 53.8131C75.4641 53.1403 75.5291 52.4219 75.4231 51.7187C75.3171 51.0155 75.0433 50.3481 74.6248 49.7731ZM53.155 53.8125C53.155 53.5539 53.2059 53.2979 53.3048 53.059C53.4037 52.8202 53.5487 52.6031 53.7316 52.4203C53.9144 52.2375 54.1314 52.0925 54.3703 51.9935C54.6092 51.8946 54.8652 51.8437 55.1238 51.8437H62.9988C63.5209 51.8437 64.0217 52.0512 64.3909 52.4204C64.7601 52.7896 64.9675 53.2904 64.9675 53.8125C64.9675 54.3346 64.7601 54.8354 64.3909 55.2046C64.0217 55.5738 63.5209 55.7812 62.9988 55.7812H55.1238C54.8652 55.7813 54.6092 55.7304 54.3703 55.6315C54.1314 55.5325 53.9144 55.3875 53.7316 55.2047C53.5487 55.0219 53.4037 54.8048 53.3048 54.566C53.2059 54.3271 53.155 54.071 53.155 53.8125Z" fill="#FF6B00"/>
</svg>
