<svg width="50" height="50" viewBox="0 0 50 50" fill="none" xmlns="http://www.w3.org/2000/svg">
<path d="M45.6055 0H4.39453C1.97139 0 0 1.97139 0 4.39453V45.6055C0 48.0286 1.97139 50 4.39453 50H45.6055C48.0286 50 50 48.0286 50 45.6055V4.39453C50 1.97139 48.0286 0 45.6055 0ZM47.0703 4.39453V23.5352H26.4648V2.92969H45.6055C46.4132 2.92969 47.0703 3.58682 47.0703 4.39453ZM4.39453 2.92969H23.5352V23.5352H2.92969V4.39453C2.92969 3.58682 3.58682 2.92969 4.39453 2.92969ZM2.92969 45.6055V26.4648H23.5352V47.0703H4.39453C3.58682 47.0703 2.92969 46.4132 2.92969 45.6055ZM45.6055 47.0703H26.4648V26.4648H47.0703V45.6055C47.0703 46.4132 46.4132 47.0703 45.6055 47.0703Z" fill="white"/>
<path d="M8.88672 14.7461H11.8164V17.6758C11.8164 18.4848 12.4723 19.1406 13.2812 19.1406C14.0902 19.1406 14.7461 18.4848 14.7461 17.6758V14.7461H17.6758C18.4848 14.7461 19.1406 14.0902 19.1406 13.2812C19.1406 12.4723 18.4848 11.8164 17.6758 11.8164H14.7461V8.88672C14.7461 8.07773 14.0902 7.42188 13.2812 7.42188C12.4723 7.42188 11.8164 8.07773 11.8164 8.88672V11.8164H8.88672C8.07773 11.8164 7.42188 12.4723 7.42188 13.2812C7.42188 14.0902 8.07773 14.7461 8.88672 14.7461Z" fill="white"/>
<path d="M15.3528 36.7187L17.4244 34.6472C17.9964 34.0751 17.9964 33.1477 17.4244 32.5756C16.8524 32.0036 15.9248 32.0036 15.3528 32.5756L13.2812 34.6472L11.2096 32.5756C10.6376 32.0036 9.71011 32.0036 9.13804 32.5756C8.56597 33.1477 8.56597 34.0751 9.13804 34.6472L11.2096 36.7187L9.13804 38.7903C8.56597 39.3624 8.56597 40.2898 9.13804 40.8619C9.71011 41.434 10.6375 41.434 11.2096 40.8619L13.2812 38.7903L15.3528 40.8619C15.9248 41.434 16.8523 41.434 17.4244 40.8619C17.9964 40.2898 17.9964 39.3624 17.4244 38.7903L15.3528 36.7187Z" fill="white"/>
<path d="M41.1133 32.3242H32.3242C31.5152 32.3242 30.8594 32.9801 30.8594 33.7891C30.8594 34.598 31.5152 35.2539 32.3242 35.2539H41.1133C41.9223 35.2539 42.5781 34.598 42.5781 33.7891C42.5781 32.9801 41.9223 32.3242 41.1133 32.3242Z" fill="white"/>
<path d="M41.1133 38.1836H32.3242C31.5152 38.1836 30.8594 38.8395 30.8594 39.6484C30.8594 40.4574 31.5152 41.1133 32.3242 41.1133H41.1133C41.9223 41.1133 42.5781 40.4574 42.5781 39.6484C42.5781 38.8395 41.9223 38.1836 41.1133 38.1836Z" fill="white"/>
<path d="M32.3242 14.7461H41.1133C41.9223 14.7461 42.5781 14.0902 42.5781 13.2812C42.5781 12.4723 41.9223 11.8164 41.1133 11.8164H32.3242C31.5152 11.8164 30.8594 12.4723 30.8594 13.2812C30.8594 14.0902 31.5152 14.7461 32.3242 14.7461Z" fill="white"/>
</svg>
