<svg width="85" height="85" viewBox="0 0 85 85" fill="none" xmlns="http://www.w3.org/2000/svg">
<path d="M58.4375 31.2109C58.9658 31.2108 59.4725 31.0009 59.846 30.6273C60.2196 30.2537 60.4296 29.7471 60.4297 29.2188V10.625C60.4282 9.39262 59.938 8.21113 59.0665 7.3397C58.1951 6.46828 57.0136 5.97805 55.7812 5.97656H44.4922V5.3125C44.4907 4.08012 44.0005 2.89863 43.129 2.0272C42.2576 1.15578 41.0761 0.665553 39.8438 0.664062H21.25C20.0176 0.665553 18.8361 1.15578 17.9647 2.0272C17.0933 2.89863 16.6031 4.08012 16.6016 5.3125V5.97656H5.3125C4.08012 5.97805 2.89863 6.46828 2.0272 7.3397C1.15578 8.21113 0.665553 9.39262 0.664062 10.625V79.6875C0.665553 80.9199 1.15578 82.1014 2.0272 82.9728C2.89863 83.8442 4.08012 84.3344 5.3125 84.3359H55.7812C57.0136 84.3344 58.1951 83.8442 59.0665 82.9728C59.938 82.1014 60.4282 80.9199 60.4297 79.6875V75.7031C60.4297 75.1748 60.2198 74.668 59.8462 74.2944C59.4726 73.9208 58.9659 73.7109 58.4375 73.7109C57.9091 73.7109 57.4024 73.9208 57.0288 74.2944C56.6552 74.668 56.4453 75.1748 56.4453 75.7031V79.6875C56.445 79.8635 56.3749 80.0322 56.2504 80.1567C56.126 80.2811 55.9573 80.3512 55.7812 80.3516H5.3125C5.13649 80.3512 4.96778 80.2811 4.84332 80.1567C4.71886 80.0322 4.64879 79.8635 4.64844 79.6875V10.625C4.64879 10.449 4.71886 10.2803 4.84332 10.1558C4.96778 10.0314 5.13649 9.96129 5.3125 9.96094H16.6016V10.625C16.6031 11.8574 17.0933 13.0389 17.9647 13.9103C18.8361 14.7817 20.0176 15.2719 21.25 15.2734H39.8438C41.0761 15.2719 42.2576 14.7817 43.129 13.9103C44.0005 13.0389 44.4907 11.8574 44.4922 10.625V9.96094H55.7812C55.9573 9.96129 56.126 10.0314 56.2504 10.1558C56.3749 10.2803 56.445 10.449 56.4453 10.625V29.2188C56.4454 29.7471 56.6554 30.2537 57.029 30.6273C57.4025 31.0009 57.9092 31.2108 58.4375 31.2109ZM40.5078 10.625C40.5075 10.801 40.4374 10.9697 40.3129 11.0942C40.1885 11.2186 40.0198 11.2887 39.8438 11.2891H21.25C21.074 11.2887 20.9053 11.2186 20.7808 11.0942C20.6564 10.9697 20.5863 10.801 20.5859 10.625V5.3125C20.5863 5.13649 20.6564 4.96778 20.7808 4.84332C20.9053 4.71886 21.074 4.64879 21.25 4.64844H39.8438C40.0198 4.64879 40.1885 4.71886 40.3129 4.84332C40.4374 4.96778 40.5075 5.13649 40.5078 5.3125V10.625Z" fill="#515067"/>
<path d="M33.8672 23.9062C33.8671 23.3779 33.6571 22.8713 33.2835 22.4977C32.91 22.1241 32.4033 21.9142 31.875 21.9141H10.625C10.0967 21.9142 9.59004 22.1241 9.21646 22.4977C8.84288 22.8713 8.63295 23.3779 8.63281 23.9062V45.1562C8.63295 45.6846 8.84288 46.1912 9.21646 46.5648C9.59004 46.9384 10.0967 47.1483 10.625 47.1484H31.875C32.4033 47.1483 32.91 46.9384 33.2835 46.5648C33.6571 46.1912 33.8671 45.6846 33.8672 45.1562V23.9062ZM29.8828 43.1641H12.6172V25.8984H29.8828V43.1641Z" fill="#515067"/>
<path d="M31.875 51.1328H10.625C10.0967 51.1329 9.59004 51.3429 9.21646 51.7165C8.84288 52.09 8.63295 52.5967 8.63281 53.125V74.375C8.63295 74.9033 8.84288 75.41 9.21646 75.7835C9.59004 76.1571 10.0967 76.3671 10.625 76.3672H31.875C32.4033 76.3671 32.91 76.1571 33.2835 75.7835C33.6571 75.41 33.8671 74.9033 33.8672 74.375V53.125C33.8671 52.5967 33.6571 52.09 33.2835 51.7165C32.91 51.3429 32.4033 51.1329 31.875 51.1328ZM12.6172 57.9343L18.4329 63.75L12.6172 69.5657V57.9343ZM15.4343 55.1172H27.0657L21.25 60.9329L15.4343 55.1172ZM21.25 66.5671L27.0657 72.3828H15.4343L21.25 66.5671ZM24.0671 63.75L29.8828 57.9343V69.5657L24.0671 63.75Z" fill="#515067"/>
<path d="M50.4688 21.9141H39.8438C39.3154 21.9141 38.8087 22.124 38.4351 22.4976C38.0615 22.8712 37.8516 23.3779 37.8516 23.9062C37.8516 24.4346 38.0615 24.9413 38.4351 25.3149C38.8087 25.6885 39.3154 25.8984 39.8438 25.8984H50.4688C50.9971 25.8984 51.5038 25.6885 51.8774 25.3149C52.251 24.9413 52.4609 24.4346 52.4609 23.9062C52.4609 23.3779 52.251 22.8712 51.8774 22.4976C51.5038 22.124 50.9971 21.9141 50.4688 21.9141Z" fill="#515067"/>
<path d="M52.4609 31.875C52.4608 31.3467 52.2509 30.84 51.8773 30.4665C51.5037 30.0929 50.9971 29.8829 50.4688 29.8828H39.8438C39.3154 29.8828 38.8087 30.0927 38.4351 30.4663C38.0615 30.8399 37.8516 31.3466 37.8516 31.875C37.8516 32.4034 38.0615 32.9101 38.4351 33.2837C38.8087 33.6573 39.3154 33.8672 39.8438 33.8672H50.4688C50.9971 33.8671 51.5037 33.6571 51.8773 33.2835C52.2509 32.91 52.4608 32.4033 52.4609 31.875Z" fill="#515067"/>
<path d="M39.8438 37.8516C39.3154 37.8516 38.8087 38.0615 38.4351 38.4351C38.0615 38.8087 37.8516 39.3154 37.8516 39.8438C37.8516 40.3721 38.0615 40.8788 38.4351 41.2524C38.8087 41.626 39.3154 41.8359 39.8438 41.8359H43.8281C44.3565 41.8359 44.8632 41.626 45.2368 41.2524C45.6104 40.8788 45.8203 40.3721 45.8203 39.8438C45.8203 39.3154 45.6104 38.8087 45.2368 38.4351C44.8632 38.0615 44.3565 37.8516 43.8281 37.8516H39.8438Z" fill="#515067"/>
<path d="M79.7622 45.0986L81.3063 43.5545C83.2459 41.6149 84.3355 38.9843 84.3355 36.2414C84.3355 33.4984 83.2459 30.8678 81.3063 28.9282C79.3667 26.9887 76.7361 25.899 73.9932 25.899C71.2502 25.899 68.6196 26.9887 66.6801 28.9282L65.136 30.4723L79.7622 45.0986Z" fill="#FF6B00"/>
<path d="M82.3438 65.7422H59.1196L76.9451 47.9157L62.3187 33.2893L41.0915 54.5154C40.7179 54.889 40.508 55.3956 40.5078 55.9239V67.7344C40.5079 68.2627 40.7179 68.7694 41.0915 69.1429C41.465 69.5165 41.9717 69.7264 42.5 69.7266H82.3438C82.8721 69.7266 83.3788 69.5167 83.7524 69.1431C84.126 68.7695 84.3359 68.2628 84.3359 67.7344C84.3359 67.206 84.126 66.6993 83.7524 66.3257C83.3788 65.9521 82.8721 65.7422 82.3438 65.7422Z" fill="#FF6B00"/>
</svg>
