<svg width="51" height="51" viewBox="0 0 51 51" fill="none" xmlns="http://www.w3.org/2000/svg">
<path d="M45.9306 30.0111C47.3955 29.5445 48.4596 28.1714 48.4596 26.5539V22.8526C48.4596 20.8521 46.8322 19.2248 44.8318 19.2248H41.5161L32.3658 0.829104C31.9984 0.0903068 31.1015 -0.21091 30.3627 0.156746C29.6239 0.524202 29.3229 1.42108 29.6903 2.15987L38.1786 19.2248H11.1277L19.6159 2.15987C19.9834 1.42108 19.6824 0.524202 18.9436 0.156746C18.2048 -0.21081 17.3079 0.0903068 16.9404 0.829104L7.79019 19.2248H4.47442C2.47399 19.2248 0.84668 20.8522 0.84668 22.8526V26.5539C0.84668 28.5544 2.47408 30.1817 4.47442 30.1817H6.65924L9.17675 44.8532C9.83466 48.7596 12.0094 51 15.1434 51H38.2496C44.8131 51 50.1528 45.6602 50.1528 39.0967C50.1529 35.4582 48.5114 32.1963 45.9306 30.0111ZM3.83494 26.5539V22.8526C3.83494 22.4999 4.12181 22.2131 4.47442 22.2131H44.8317C45.1844 22.2131 45.4712 22.4999 45.4712 22.8526V26.5539C45.4712 26.9065 45.1844 27.1934 44.8317 27.1934C42.4981 27.1934 6.80666 27.1934 4.47442 27.1934C4.12181 27.1935 3.83494 26.9066 3.83494 26.5539ZM30.3717 30.1818C29.2926 31.1364 28.3877 32.2833 27.7108 33.5685H17.4813C16.6562 33.5685 15.9872 34.2374 15.9872 35.0626C15.9872 35.8877 16.6562 36.5567 17.4813 36.5567H26.6202C26.3786 37.6638 26.2959 38.7949 26.377 39.9434H11.3662L9.69123 30.1818H30.3717ZM15.1435 48.0117C12.5417 48.0117 12.2157 44.8943 11.8789 42.9317H26.9804C27.6554 44.9099 28.838 46.6548 30.3717 48.0117H15.1435ZM38.2497 48.0117C32.0112 48.0117 27.7036 41.7379 29.9156 35.9322C30.0422 35.7559 30.1312 35.5513 30.1712 35.3291C31.5937 32.2914 34.6797 30.1819 38.2497 30.1819C43.1655 30.1819 47.1647 34.181 47.1647 39.0968C47.1647 44.0126 43.1655 48.0117 38.2497 48.0117Z" fill="white"/>
<path d="M42.1841 37.5528H39.6938V35.0626C39.6938 34.2374 39.0249 33.5684 38.1997 33.5684C37.3745 33.5684 36.7056 34.2374 36.7056 35.0626V37.5528H34.2153C33.3902 37.5528 32.7212 38.2218 32.7212 39.0469C32.7212 39.8721 33.3902 40.5411 34.2153 40.5411H36.7056V43.0313C36.7056 43.8565 37.3745 44.5255 38.1997 44.5255C39.0249 44.5255 39.6938 43.8565 39.6938 43.0313V40.5411H42.1841C43.0092 40.5411 43.6782 39.8721 43.6782 39.0469C43.6782 38.2218 43.0092 37.5528 42.1841 37.5528Z" fill="white"/>
</svg>
