<svg width="82" height="82" viewBox="0 0 82 82" fill="none" xmlns="http://www.w3.org/2000/svg">
<path d="M69.0111 62.1406C70.0287 62.1437 71.0173 61.8014 71.8151 61.1696C72.6129 60.5379 73.1727 59.6541 73.4029 58.6629L81.2393 25.366C81.3928 24.7063 81.395 24.0204 81.2458 23.3597C81.0965 22.699 80.7998 22.0807 80.3777 21.551C79.9556 21.0212 79.4191 20.5939 78.8084 20.301C78.1977 20.008 77.5286 19.857 76.8513 19.8594H71.75C71.2403 19.8594 70.7514 20.0619 70.391 20.4223C70.0306 20.7827 69.8281 21.2715 69.8281 21.7812C69.8281 22.291 70.0306 22.7798 70.391 23.1402C70.7514 23.5006 71.2403 23.7031 71.75 23.7031H76.8512C76.9489 23.7009 77.0458 23.7209 77.1347 23.7615C77.2236 23.8021 77.3021 23.8623 77.3644 23.9377C77.4266 24.013 77.471 24.1014 77.4942 24.1964C77.5173 24.2913 77.5187 24.3902 77.4981 24.4858L71.3499 50.6094H16.1813L12.7018 23.7031H17.9375C18.4472 23.7031 18.936 23.5006 19.2965 23.1402C19.6569 22.7798 19.8594 22.291 19.8594 21.7812C19.8594 21.2715 19.6569 20.7827 19.2965 20.4223C18.936 20.0619 18.4472 19.8594 17.9375 19.8594H12.2047L11.7589 16.4123C11.4656 14.1793 10.3715 12.1288 8.68 10.6419C6.98849 9.15495 4.81464 8.33276 2.5625 8.32813C2.05279 8.32813 1.56395 8.53061 1.20353 8.89103C0.843108 9.25145 0.640625 9.74029 0.640625 10.25C0.640625 10.7597 0.843108 11.2485 1.20353 11.609C1.56395 11.9694 2.05279 12.1719 2.5625 12.1719C3.88116 12.1748 5.15394 12.6563 6.1444 13.5268C7.13486 14.3974 7.77566 15.5979 7.94776 16.9052L13.2917 58.2287C13.4335 59.3094 13.9629 60.3017 14.7816 61.0213C15.6002 61.7409 16.6523 62.1386 17.7423 62.1406H22.4219V65.9844H15.375C14.8653 65.9844 14.3764 66.1869 14.016 66.5473C13.6556 66.9077 13.4531 67.3965 13.4531 67.9062C13.4531 68.416 13.6556 68.9048 14.016 69.2652C14.3764 69.6256 14.8653 69.8281 15.375 69.8281H17.6963C17.0177 70.9965 16.6589 72.3231 16.6563 73.6742C16.6536 75.0254 17.0071 76.3533 17.6811 77.5244C18.3552 78.6954 19.3259 79.6681 20.4956 80.3444C21.6653 81.0208 22.9926 81.3769 24.3438 81.3769C25.6949 81.3769 27.0222 81.0208 28.1919 80.3444C29.3616 79.6681 30.3323 78.6954 31.0064 77.5244C31.6804 76.3533 32.0339 75.0254 32.0312 73.6742C32.0286 72.3231 31.6698 70.9965 30.9912 69.8281H56.1338C55.4552 70.9965 55.0965 72.3231 55.0938 73.6742C55.0911 75.0254 55.4446 76.3533 56.1187 77.5244C56.7927 78.6954 57.7635 79.6681 58.9331 80.3444C60.1028 81.0208 61.4301 81.3769 62.7813 81.3769C64.1324 81.3769 65.4597 81.0208 66.6294 80.3444C67.7991 79.6681 68.7699 78.6954 69.4439 77.5244C70.1179 76.3533 70.4714 75.0254 70.4688 73.6742C70.4661 72.3231 70.1074 70.9965 69.4287 69.8281H71.75C72.2597 69.8281 72.7485 69.6256 73.109 69.2652C73.4694 68.9048 73.6719 68.416 73.6719 67.9062C73.6719 67.3965 73.4694 66.9077 73.109 66.5473C72.7485 66.1869 72.2597 65.9844 71.75 65.9844H64.7031V62.1406H69.0111ZM17.1029 57.7357L16.6784 54.4531H70.4452L69.6618 57.782C69.6276 57.9288 69.5447 58.0597 69.4265 58.1532C69.3083 58.2468 69.1618 58.2974 69.0111 58.2969H17.7423C17.5858 58.2967 17.4347 58.2397 17.3171 58.1365C17.1995 58.0332 17.1234 57.8908 17.1029 57.7357ZM28.1875 73.6719C28.1875 74.4321 27.9621 75.1752 27.5397 75.8074C27.1174 76.4394 26.517 76.9321 25.8147 77.223C25.1123 77.514 24.3395 77.5901 23.5939 77.4418C22.8483 77.2935 22.1634 76.9274 21.6258 76.3898C21.0882 75.8523 20.7222 75.1674 20.5739 74.4218C20.4255 73.6761 20.5017 72.9033 20.7926 72.2009C21.0835 71.4986 21.5762 70.8983 22.2083 70.4759C22.8404 70.0536 23.5835 69.8281 24.3437 69.8281C25.3628 69.8292 26.3399 70.2346 27.0605 70.9552C27.7811 71.6758 28.1864 72.6528 28.1875 73.6719ZM66.625 73.6719C66.625 74.4321 66.3996 75.1752 65.9772 75.8074C65.5548 76.4394 64.9545 76.9321 64.2522 77.223C63.5498 77.514 62.777 77.5901 62.0314 77.4418C61.2858 77.2935 60.6009 76.9274 60.0633 76.3898C59.5257 75.8523 59.1597 75.1674 59.0114 74.4218C58.863 73.6761 58.9392 72.9033 59.2301 72.2009C59.521 71.4986 60.0137 70.8983 60.6458 70.4759C61.2779 70.0536 62.021 69.8281 62.7812 69.8281C63.8003 69.8292 64.7774 70.2346 65.498 70.9552C66.2186 71.6758 66.6239 72.6528 66.625 73.6719ZM60.8594 65.9844H26.2656V62.1406H60.8594V65.9844Z" fill="#515067"/>
<path d="M44.8438 0.640625C40.6625 0.640625 36.5752 1.8805 33.0987 4.20346C29.6221 6.52642 26.9125 9.82814 25.3124 13.6911C23.7123 17.554 23.2936 21.8047 24.1093 25.9056C24.9251 30.0065 26.9385 33.7734 29.8951 36.7299C32.8516 39.6865 36.6185 41.6999 40.7194 42.5157C44.8203 43.3314 49.071 42.9127 52.9339 41.3126C56.7969 39.7126 60.0986 37.0029 62.4215 33.5264C64.7445 30.0498 65.9844 25.9625 65.9844 21.7812C65.9779 16.1764 63.7486 10.8029 59.7853 6.83969C55.8221 2.87645 50.4486 0.647068 44.8438 0.640625ZM55.3503 15.2467L43.819 30.6217C43.6645 30.8277 43.4702 31.0006 43.2476 31.13C43.025 31.2595 42.7786 31.3429 42.5232 31.3753C42.2677 31.4078 42.0083 31.3886 41.7604 31.3189C41.5126 31.2492 41.2812 31.1304 41.0801 30.9696L34.6738 25.8446C34.2758 25.526 34.0206 25.0624 33.9644 24.5556C33.9082 24.0489 34.0556 23.5406 34.3742 23.1426C34.6927 22.7445 35.1564 22.4893 35.6631 22.4331C36.1698 22.3769 36.6781 22.5243 37.0762 22.8429L41.9334 26.7292L52.2748 12.9408C52.4262 12.7388 52.6159 12.5687 52.833 12.44C53.0502 12.3114 53.2906 12.2268 53.5404 12.1911C53.7903 12.1554 54.0447 12.1692 54.2893 12.2318C54.5338 12.2944 54.7636 12.4046 54.9655 12.556C55.1674 12.7074 55.3376 12.8971 55.4662 13.1143C55.5948 13.3314 55.6794 13.5718 55.7152 13.8217C55.7509 14.0715 55.737 14.326 55.6744 14.5705C55.6118 14.815 55.5017 15.0448 55.3503 15.2467Z" fill="#FF6B00"/>
</svg>
