<svg width="83" height="83" viewBox="0 0 83 83" fill="none" xmlns="http://www.w3.org/2000/svg">
<path d="M40.5928 67.7563L22.4365 36.6313C22.2649 36.3379 22.0194 36.0946 21.7246 35.9255C21.4298 35.7564 21.0958 35.6674 20.7559 35.6674C20.416 35.6674 20.082 35.7564 19.7872 35.9255C19.4923 36.0946 19.2469 36.3379 19.0753 36.6313L0.919021 67.7563C0.724356 68.0918 0.63431 68.4778 0.660426 68.8647C0.686542 69.2517 0.82763 69.6221 1.0656 69.9284C1.30358 70.2346 1.6276 70.4629 1.99613 70.5838C2.36466 70.7048 2.76091 70.7129 3.13408 70.6071L18.8106 66.1281V55.1194C18.8106 54.6034 19.0155 54.1086 19.3803 53.7438C19.7452 53.379 20.24 53.1741 20.7559 53.1741C21.2718 53.1741 21.7666 53.379 22.1314 53.7438C22.4962 54.1086 22.7012 54.6034 22.7012 55.1194V66.1281L38.3777 70.6071C38.7509 70.7128 39.1471 70.7047 39.5156 70.5837C39.8841 70.4628 40.2081 70.2346 40.4461 69.9283C40.6841 69.622 40.8252 69.2517 40.8513 68.8647C40.8774 68.4777 40.7874 68.0918 40.5928 67.7563Z" fill="#FF6B00"/>
<path d="M76.8437 6.1604C74.7398 4.05194 72.1646 2.47403 69.3308 1.55688C66.4969 0.639729 63.4856 0.409638 60.5453 0.885595C57.605 1.36155 54.82 2.52991 52.4203 4.29425C50.0205 6.05859 48.0746 8.36832 46.7434 11.0328C46.7244 11.0323 46.7067 11.0272 46.6875 11.0272H6.48438C4.93715 11.0289 3.45376 11.6442 2.35967 12.7382C1.26559 13.8323 0.650168 15.3156 0.648438 16.8628V56.2141C0.648438 56.73 0.853389 57.2248 1.21821 57.5896C1.58302 57.9544 2.07782 58.1594 2.59375 58.1594C3.10968 58.1594 3.60448 57.9544 3.96929 57.5896C4.33411 57.2248 4.53906 56.73 4.53906 56.2141V16.8628C4.53964 16.3471 4.74478 15.8526 5.10948 15.488C5.47417 15.1233 5.96863 14.9182 6.48438 14.9176H45.3137C44.94 16.4018 44.7481 17.926 44.7422 19.4565C44.7354 21.9268 45.2188 24.374 46.1642 26.6563C47.1097 28.9386 48.4984 31.0107 50.2501 32.7526L61.2546 43.7564C61.863 44.3635 62.6874 44.7044 63.5469 44.7044C64.4064 44.7044 65.2308 44.3635 65.8392 43.7564L76.8437 32.7526C77.4227 32.1647 77.963 31.5397 78.4609 30.8816V76.5159C78.4604 77.0317 78.2552 77.5261 77.8905 77.8908C77.5258 78.2555 77.0314 78.4606 76.5156 78.4612H6.48438C5.96863 78.4606 5.47417 78.2555 5.10948 77.8908C4.74478 77.5261 4.53964 77.0317 4.53906 76.5159C4.53906 76 4.33411 75.5052 3.96929 75.1404C3.60448 74.7756 3.10968 74.5706 2.59375 74.5706C2.07782 74.5706 1.58302 74.7756 1.21821 75.1404C0.853389 75.5052 0.648438 76 0.648438 76.5159C0.650168 78.0632 1.26559 79.5465 2.35967 80.6406C3.45376 81.7346 4.93715 82.3499 6.48438 82.3516H76.5156C78.0629 82.3499 79.5462 81.7346 80.6403 80.6406C81.7344 79.5465 82.3498 78.0632 82.3516 76.5159V19.4565C82.3583 16.9861 81.875 14.539 80.9295 12.2567C79.9841 9.97439 78.5953 7.90232 76.8437 6.1604ZM74.0929 30.0019L63.5469 40.5473L53.0009 30.0019C50.9152 27.9161 49.4948 25.2587 48.9194 22.3657C48.3439 19.4726 48.6393 16.4739 49.7681 13.7488C50.8969 11.0236 52.8085 8.69438 55.2611 7.05562C57.7137 5.41686 60.5972 4.54217 63.5469 4.54217C66.4966 4.54217 69.3801 5.41686 71.8326 7.05562C74.2852 8.69438 76.1968 11.0236 77.3256 13.7488C78.4545 16.4739 78.7498 19.4726 78.1744 22.3657C77.599 25.2587 76.1786 27.9161 74.0929 30.0019Z" fill="#515067"/>
<path d="M62.8984 11.0256C61.2312 11.0256 59.6014 11.52 58.2152 12.4462C56.8289 13.3725 55.7484 14.689 55.1104 16.2294C54.4724 17.7697 54.3055 19.4646 54.6307 21.0998C54.956 22.735 55.7588 24.237 56.9378 25.4159C58.1167 26.5949 59.6187 27.3977 61.2539 27.723C62.8891 28.0482 64.584 27.8813 66.1243 27.2433C67.6647 26.6052 68.9812 25.5248 69.9075 24.1385C70.8337 22.7523 71.3281 21.1225 71.3281 19.4553C71.3256 17.2204 70.4366 15.0777 68.8563 13.4974C67.276 11.9171 65.1333 11.0282 62.8984 11.0256ZM62.8984 23.9943C62.0007 23.9943 61.1231 23.7281 60.3767 23.2293C59.6302 22.7306 59.0484 22.0217 58.7049 21.1923C58.3613 20.3629 58.2715 19.4502 58.4466 18.5697C58.6217 17.6892 59.054 16.8805 59.6888 16.2457C60.3236 15.6109 61.1324 15.1786 62.0129 15.0034C62.8934 14.8283 63.8061 14.9182 64.6355 15.2617C65.4649 15.6053 66.1738 16.187 66.6725 16.9335C67.1713 17.6799 67.4375 18.5575 67.4375 19.4553C67.4361 20.6586 66.9574 21.8123 66.1064 22.6632C65.2555 23.5142 64.1018 23.9929 62.8984 23.9943Z" fill="#515067"/>
<path d="M29.8281 18.8068C26.7336 18.8103 23.7669 20.0411 21.5787 22.2293C19.3906 24.4174 18.1597 27.3842 18.1562 30.4787C18.1563 30.9946 18.3612 31.4894 18.726 31.8542C19.0908 32.2191 19.5856 32.424 20.1016 32.424C20.6175 32.424 21.1123 32.2191 21.4771 31.8542C21.8419 31.4894 22.0469 30.9946 22.0469 30.4787C22.0469 28.415 22.8667 26.4358 24.3259 24.9765C25.7852 23.5173 27.7644 22.6974 29.8281 22.6974C31.8918 22.6974 33.871 23.5173 35.3303 24.9765C36.7896 26.4358 37.6094 28.415 37.6094 30.4787V53.174C37.6094 56.7855 39.044 60.2491 41.5978 62.8028C44.1515 65.3565 47.6151 66.7912 51.2266 66.7912C54.8381 66.7912 58.3017 65.3565 60.8554 62.8028C63.4091 60.2491 64.8438 56.7855 64.8438 53.174V49.2834C64.8438 48.7675 64.6388 48.2727 64.274 47.9078C63.9092 47.543 63.4144 47.3381 62.8984 47.3381C62.3825 47.3381 61.8877 47.543 61.5229 47.9078C61.1581 48.2727 60.9531 48.7675 60.9531 49.2834V53.174C60.9531 55.7537 59.9284 58.2276 58.1043 60.0517C56.2802 61.8758 53.8062 62.9006 51.2266 62.9006C48.6469 62.9006 46.1729 61.8758 44.3488 60.0517C42.5248 58.2276 41.5 55.7537 41.5 53.174V30.4787C41.4965 27.3842 40.2657 24.4174 38.0775 22.2293C35.8894 20.0411 32.9226 18.8103 29.8281 18.8068Z" fill="#515067"/>
</svg>
